<svg width="1547" height="1341" viewBox="0 0 1547 1341" fill="none" xmlns="http://www.w3.org/2000/svg">
<path d="M924 270L892 91H987.11L964 261L1107 121L1229 137L1030 288L1470 209V248.43L1372 271L1491 261L1483 340H1457.4L1482 346L1479 366L1070 346L1531 489L1497.23 635.11L1134 420L1546.26 895.21L1479 1010L1447 978L1467 1022L1448 1042L1096 483L1179 877L1085.15 895.21L1061 737L1067 970L1005 978L1002 530L928.89 1042L849 1051V991.4L835.45 1051L809 1057L918.17 574L644 1047L498 1048L871 558L270 1023L96 958L329 815L135 909L153 809L756 541L77 700.34L0 715L45 590L545 537L206 557L229 504L707 486L163.45 410L151 294L253 327L264 278L717 423L328.89 169L427 106L752 386L519 51L580 0L735 265L674 110L773.13 101.87L827 300V110L924 270Z" fill="#C73222"/>
<path d="M1348.28 781.5L1449.91 585.9L1428.42 527.86L1376.05 488.74L1344.76 459.71L1310.49 452.85L1259.85 408.09L1241.22 415.26L1215.94 394L1175.21 397.3L1146.12 454.09L1063.65 422.9L1024 572.24L1120.42 694.05L1087.29 1150.67L1354.6 1136.59L1354.5 1136.06L1445.99 1128.65L1348.28 781.5Z" fill="#FBFBFF"/>
<path d="M1112.64 1127.54L1144.16 689.36L1049.44 568.98L1082.46 452.15L1142.76 480.04L1164.91 518.45L1167.82 554.42L1186.49 558.61L1193.27 571.69L1172.26 578.18L1109.41 511.46L1093.76 524.21L1105.9 523.23L1167.14 595.21L1210.51 577.85L1201.82 560.63L1214.1 562.82L1215.71 582.73L1251.34 600.6L1282.3 585.88L1295.46 592.13L1294.24 606.59L1327.27 630.25L1369.52 562.33L1384.67 570.54L1368.86 552.68L1324.46 611.81L1307.9 602.74L1320.81 528.21L1367.57 508.7L1411.89 543.61L1424.25 586.49L1325.33 783.59L1418.69 1108.73L1354.21 1113.96L1308.61 990.79L1327.85 1116.09L1112.64 1127.54Z" fill="black"/>
<path d="M1165.58 466.22L1176.89 546.69L1210.76 552.57L1198.72 487.14L1215.97 438.2L1227.1 434L1209.48 417.19L1190.33 418.74L1165.58 466.22Z" fill="black"/>
<path d="M1212.88 488.72L1227.39 446.93L1258.65 434.62L1294.73 470.25L1256.76 499.96L1262.6 572.01L1270.22 577.5L1251.99 586.31L1226.95 573.75L1212.88 488.72Z" fill="black"/>
<path d="M1305.18 477.18L1269.31 505.69L1276.69 567.32L1300.15 582.41L1308.4 516.96L1355.11 501.13L1336.73 481.08L1305.18 477.18Z" fill="black"/>
<path d="M1174.38 604.34L1227.81 644.51L1242.49 706.53L1237.5 644.93L1261.91 621.18L1293.01 621.05L1258.95 614.24L1230.93 633.65L1213.79 618.33L1174.38 604.34Z" fill="#FBFBFF"/>
<path d="M658.63 971.5L557 775.9L578.49 717.86L630.86 678.74L662.15 649.71L696.42 642.85L747.06 598.09L765.69 605.26L790.97 584L831.7 587.3L860.79 644.09L943.26 612.9L982.91 762.24L886.49 884.05L919.62 1340.67L652.31 1326.59L652.41 1326.06L560.92 1318.65L658.63 971.5Z" fill="#FBFBFF"/>
<path d="M894.27 1317.54L862.75 879.36L957.47 758.98L924.45 642.15L864.15 670.04L842 708.45L839.09 744.42L820.42 748.61L813.64 761.69L834.65 768.18L897.5 701.46L913.15 714.21L901.01 713.23L839.77 785.21L796.4 767.85L805.09 750.63L792.81 752.82L791.2 772.73L755.57 790.6L724.61 775.88L711.45 782.13L712.67 796.59L679.64 820.25L637.39 752.33L622.24 760.54L638.05 742.68L682.45 801.81L699.01 792.74L686.1 718.21L639.34 698.7L595.02 733.61L582.66 776.49L681.58 973.59L588.22 1298.73L652.7 1303.96L698.3 1180.79L679.06 1306.09L894.27 1317.54Z" fill="black"/>
<path d="M841.33 656.22L830.02 736.69L796.15 742.57L808.19 677.14L790.94 628.2L779.81 624L797.43 607.19L816.58 608.74L841.33 656.22Z" fill="black"/>
<path d="M794.03 678.72L779.52 636.93L748.26 624.62L712.18 660.25L750.15 689.96L744.31 762.01L736.69 767.5L754.92 776.31L779.96 763.75L794.03 678.72Z" fill="black"/>
<path d="M701.73 667.18L737.6 695.69L730.22 757.32L706.76 772.41L698.51 706.96L651.8 691.13L670.18 671.08L701.73 667.18Z" fill="black"/>
<path d="M832.53 794.34L779.1 834.51L764.42 896.53L769.41 834.93L745 811.18L713.9 811.05L747.96 804.24L775.98 823.65L793.12 808.33L832.53 794.34Z" fill="#FBFBFF"/>
</svg>
