<svg width="342" height="242" viewBox="0 0 342 242" fill="none" xmlns="http://www.w3.org/2000/svg">
<g clip-path="url(#clip0_70_25)">
<path d="M138.508 197.712H103.013V87.7199L82.2985 197.712H54.8886L31.1405 87.7199V197.712H0.0644531V1.77804H51.2225L69.4111 103.434L85.203 1.77804H138.508V197.716V197.712Z" fill="#231F20"/>
<path d="M254.843 197.712H215.415L202.253 154.061H184.597L184.249 197.712H144.821V1.77804H195.273L254.843 197.716V197.712Z" fill="#D42027"/>
<path d="M342 70.2327H305.872V31.4276C305.872 28.2392 304.039 26.6474 300.382 26.6474C296.724 26.6474 294.633 28.2439 294.633 31.4276V167.383C294.633 170.571 296.548 172.163 300.382 172.163C304.216 172.163 305.872 170.571 305.872 167.383V119.013H342V168.747C342 178.037 337.787 185.484 329.366 191.088C320.945 196.688 311.432 199.49 300.82 199.49C270.166 199.49 254.843 187.737 254.843 164.236V38.1209C254.843 12.707 270.17 0 300.82 0C328.273 0 342 11.5712 342 34.7044V70.228V70.2327Z" fill="#231F20"/>
<path d="M205.385 1.77804L247.653 145.604L246.276 36.3056C246.276 28.5976 248.088 20.9502 251.874 14.4198C255.084 8.87625 259.968 3.52816 267.214 1.77804H205.389H205.385Z" fill="#231F20"/>
<path fill-rule="evenodd" clip-rule="evenodd" d="M86.8166 77.1726C84.2994 79.8956 84.6135 80.7473 84.7727 81.5991C84.9276 82.4509 84.6135 85.5136 85.0869 87.045C85.5602 88.5763 86.6617 90.2752 87.4449 91.639C88.2323 92.9982 92.1652 95.8933 93.4217 96.4006C94.6825 96.9126 94.5233 101.167 95.6248 101.507C96.8813 101.846 97.3546 103.378 99.3985 104.23C101.442 105.077 102.776 104.481 102.776 104.481C102.776 104.481 108.986 110.606 109.381 111.035C109.769 111.458 109.618 113.758 109.769 115.033C109.928 116.308 112.854 119.264 113.542 119.65C114.231 120.037 114.562 119.692 114.562 119.692C114.562 119.692 114.958 119.967 115.19 120.204C115.427 120.437 115.995 120.735 116.92 120.353C117.845 119.971 120.238 118.356 120.238 118.356C120.238 118.356 120.982 118.31 121.886 118.012C122.794 117.714 122.751 116.653 122.751 116.653C122.751 116.653 123.379 116.48 123.65 116.057C123.925 115.633 124.317 114.865 124.317 114.865C124.317 114.865 125.182 114.609 125.612 114.186C126.047 113.762 125.767 113.12 125.182 112.184C124.592 111.249 122.351 110.141 122.351 110.141C122.351 110.141 121.563 108.693 119.678 107.418C117.794 106.143 116.46 105.463 115.276 104.779C114.097 104.099 113.865 103.843 112.131 101.972C110.406 100.101 107.023 95.763 107.023 95.763C107.023 95.763 109.85 96.7032 111.739 96.8707C113.624 97.043 115.827 102.912 116.378 102.996C116.925 103.08 119.05 103.764 120.229 104.016C121.408 104.272 123.138 106.226 126.748 106.738C130.363 107.246 130.285 106.994 131.856 106.906C133.431 106.822 133.818 107.842 135.47 109.461C136.284 110.257 137.286 110.723 138.095 110.993C136.731 111.868 135.341 112.729 133.994 113.525C128.62 116.704 120.388 121.247 120.388 121.247L122.32 124.882C122.32 124.882 126.103 122.88 131.645 119.338C134.313 117.63 136.636 115.731 138.65 114.176L138.065 116.015C138.065 116.015 137.123 116.439 135.944 117.802C134.765 119.161 131.073 122.908 129.261 123.928C127.454 124.947 122.424 125.971 117.239 128.61C112.049 131.245 109.295 137.459 109.295 137.459C109.295 137.459 112.282 140.437 112.677 141.029C113.073 141.624 113.861 138.562 117.867 134.903C121.873 131.245 127.613 128.098 131.933 127.502C136.258 126.907 138.611 122.396 138.611 122.396C138.611 122.396 137.2 128.694 137.712 130.053C138.224 131.412 145.845 141.41 146.865 140.982C147.889 140.558 147.338 140.898 147.725 140.982C148.121 141.07 151.499 141.75 154.722 141.834C156.985 141.894 157.312 140.991 157.82 140.237C159.081 140.6 160.72 140.582 163.147 139.781C168.104 138.143 172.639 139.781 179.782 138.143C186.921 136.509 195.32 132.325 197.338 132.325C198.634 132.325 197.05 129.215 195.69 126.316C198.685 125.371 201.814 124.384 202.506 124.133C203.918 123.621 205.024 124.3 208.479 123.621C211.934 122.941 216.336 121.07 218.066 120.218C219.796 119.366 221.685 116.816 221.685 116.816C221.685 116.816 223.729 116.983 225.14 117.155C226.556 117.328 228.126 116.648 231.9 116.476C235.669 116.308 250.945 118.552 252.201 118.896C253.458 119.236 254.404 119.236 256.13 115.154C257.86 111.067 258.716 109.759 258.716 109.759C258.716 109.759 259.757 110.099 261.526 110.527C263.29 110.951 263.608 111.249 265.532 111.379C267.46 111.509 270.011 111.211 270.011 111.211C270.011 111.211 270.721 111.938 271.582 112.319C272.447 112.706 273.544 112.45 273.544 112.45C273.544 112.45 274.293 112.664 274.839 112.408C275.39 112.152 276.448 111.174 276.724 110.192C276.999 109.215 276.879 108.791 277.197 107.897C277.511 107.004 278.101 106.199 278.217 105.174C278.333 104.155 277.942 103.387 277.903 102.708C277.86 102.028 277.391 101.218 276.251 100.878C275.115 100.539 275.115 101.516 275.115 101.516C275.115 101.516 274.878 101.474 274.486 101.688C274.095 101.898 273.626 102.368 273.626 102.368C273.626 102.368 272.012 102.112 270.717 102.028C269.417 101.944 267.533 102.749 266.315 102.452C265.097 102.154 264.31 102.028 263.092 102.154C261.874 102.284 258.733 101.767 258.733 101.767L258.182 99.9381C258.182 99.9381 257.003 99.3004 256.22 98.9188C255.433 98.5371 251.074 100.194 247.614 98.067C244.155 95.9398 238.264 95.2603 236.061 94.6645C233.862 94.0687 226.396 94.3247 225.14 93.8127C224.426 93.5521 220.945 94.4131 219.52 94.0687C218.096 93.7243 215.247 92.4396 214.06 92.1836C212.872 91.9276 211.68 91.8392 210.101 92.0114C208.518 92.1836 208.122 92.9563 206.383 91.9276C204.641 90.8989 201.319 91.3272 199.499 90.9874C197.678 90.6429 190.32 87.5616 190.32 87.5616C190.32 87.5616 189.606 83.0234 189.451 82.5952C189.292 82.167 187.949 82.935 186.443 83.7914C184.942 84.6479 183.195 84.5641 180.109 84.0474C177.024 83.5308 170.694 89.8703 170.694 89.8703C170.694 89.8703 168.16 86.5283 167.054 84.9039C165.944 83.2748 164.442 80.361 164.442 80.361C164.442 80.361 166.262 79.5884 167.768 79.7606C169.184 79.9188 172.347 78.569 175.35 77.6195C177.472 77.4193 179.481 77.1773 181.099 77.0004H181.116C186.581 76.4093 193.302 73.4118 196.831 74.4078C200.359 75.4086 203.969 76.7723 206.323 75.6785C208.677 74.5894 211.951 75.0455 213.126 74.8593C214.301 74.6778 215.226 74.4032 215.058 73.9517C214.998 73.7888 215.037 72.7182 215.105 71.4196C215.411 70.9914 215.759 70.5306 216.074 70.2932C216.706 69.8231 216.745 70.0791 216.943 70.121C217.141 70.1675 218.092 70.5957 219.395 71.0659C220.704 71.536 222.382 71.1543 222.382 71.1543C222.382 71.1543 222.838 71.7733 222.76 72.0945C222.679 72.4157 222.976 73.0347 223.255 73.058C223.531 73.0813 224.443 72.5041 224.735 72.2435C225.037 71.9875 225.467 72.0526 225.884 71.8571C226.302 71.6616 226.655 71.3684 226.973 71.5127C227.287 71.6616 228.238 71.8757 228.535 71.6849C228.832 71.4894 229.426 70.8052 229.52 70.3584C229.624 69.9069 229.404 69.1994 229.305 69.1808C229.206 69.1575 229.327 68.9899 229.723 68.3895C230.114 67.789 230.51 67.4679 230.338 66.5696C230.157 65.6712 227.033 61.7521 226.655 61.3425C226.28 60.9375 225.884 60.998 225.742 61.0213C225.605 61.0446 225.488 60.7234 225.291 60.5931C225.093 60.4628 224.718 60.5698 224.301 60.7839C223.888 60.998 218.802 62.818 218.565 62.9064C218.324 62.9902 216.349 62.9902 215.953 63.0786C215.557 63.1624 215.794 61.7521 215.716 61.3192C215.635 60.891 215.716 60.0345 214.688 59.7785C213.664 59.5225 212.868 60.2952 210.101 59.6063C207.33 58.9221 205.196 57.805 201.314 57.549C197.437 57.2884 185.652 56.6088 184.305 56.6926C182.958 56.7764 179.713 58.0657 178.134 57.3768C176.551 56.6926 172.674 57.4606 172.041 57.2884C171.409 57.1161 169.115 57.3768 167.373 57.2884C165.63 57.2046 163.496 58.317 162.545 58.4892C161.594 58.6614 157.084 57.0324 154.791 56.6926C152.497 56.3481 147.433 57.6328 145.217 57.9772C145.217 57.9772 144.795 58.0377 144.752 57.5257C144.713 57.0137 145.423 56.6739 146.013 55.3567C146.602 54.0395 146.284 53.0201 145.892 51.3584C145.496 49.7014 145.423 49.3151 145.496 47.8256C145.548 46.8714 145.406 45.7031 145.298 44.9817C145.496 44.8746 145.694 44.7536 145.888 44.614C146.228 44.3719 146.542 44.0834 146.8 43.8087C146.843 43.7622 146.882 43.7203 146.921 43.6784C147.084 43.5062 147.239 43.3293 147.364 43.1478C147.76 42.6032 147.906 42.0959 147.91 42.1005C147.91 42.1005 147.686 42.5706 147.248 43.0361C147.157 43.1431 147.045 43.2455 146.938 43.3433C146.976 43.2921 147.019 43.2362 147.058 43.1804C147.196 42.9802 147.316 42.7708 147.42 42.5613C147.42 42.6079 147.42 42.6358 147.42 42.6358C147.42 42.6358 147.54 42.5101 147.678 42.2076C147.764 42.0819 147.85 41.9283 147.927 41.7421C148.194 41.1324 148.341 40.2573 148.28 39.5545C148.263 39.21 148.199 38.9214 148.134 38.7166C148.125 38.442 148.108 38.2652 148.108 38.2652C148.108 38.2652 148.104 38.3769 148.087 38.5584C148.069 38.5025 148.052 38.4606 148.035 38.4281C148.095 38.2652 148.134 38.214 148.134 38.214C148.134 38.214 147.983 38.3164 147.816 38.4234C147.798 38.3257 147.773 38.2326 147.747 38.1441C147.747 38.1395 147.738 38.1302 147.738 38.1209C147.828 37.9673 147.915 37.8276 147.953 37.7857C147.996 37.7392 147.841 37.7764 147.635 37.8323C147.587 37.7066 147.536 37.5949 147.484 37.5018C147.42 37.3761 147.359 37.283 147.312 37.2132C147.312 37.1993 147.312 37.19 147.312 37.19C147.312 37.19 147.312 37.1946 147.303 37.2039H147.299C147.308 37.1294 147.312 37.0876 147.312 37.0876C147.312 37.0876 147.299 37.1248 147.282 37.176C147.239 37.1201 147.213 37.0876 147.213 37.0876C147.213 37.0876 147.235 37.1248 147.278 37.2039C147.26 37.2458 147.243 37.297 147.222 37.3575C147.2 37.3948 147.17 37.4366 147.136 37.4832C147.024 37.4832 146.882 37.4832 146.714 37.4739C146.847 37.4366 146.925 37.4087 146.925 37.4087C146.925 37.4087 146.817 37.432 146.641 37.4646C146.619 37.4041 146.598 37.3482 146.581 37.311C146.615 37.3063 146.632 37.3017 146.632 37.3017C146.632 37.3017 146.615 37.3017 146.576 37.297C146.572 37.283 146.563 37.2691 146.559 37.2598C146.667 37.2225 146.727 37.1993 146.727 37.1993C146.727 37.1993 146.662 37.2086 146.546 37.2318C146.538 37.2132 146.529 37.1993 146.529 37.1993C146.529 37.1993 146.533 37.2132 146.538 37.2318C146.49 37.2412 146.439 37.2458 146.378 37.2551C146.555 37.0503 146.637 36.8781 146.637 36.8781C146.637 36.8781 146.49 37.0084 146.258 37.1341C146.163 37.0457 146.086 36.9805 146.03 36.9433C146.223 36.906 146.34 36.8781 146.34 36.8781C146.34 36.8781 146.241 36.8874 146.073 36.9014C146.241 36.7664 146.335 36.664 146.34 36.664C146.34 36.664 146.094 36.8036 145.729 36.9293C145.466 36.9479 145.13 36.9712 144.756 36.9945C145.13 36.8362 145.35 36.6593 145.35 36.6593C145.35 36.6593 144.988 36.8176 144.472 36.8781C144.657 36.8129 144.756 36.7664 144.756 36.7664C144.756 36.7664 144.649 36.7897 144.472 36.8176C144.709 36.6733 144.859 36.5523 144.859 36.5523C144.859 36.5523 144.537 36.6547 144.111 36.7292C143.831 36.7804 143.513 36.8269 143.211 36.8734H143.173C143.173 36.8734 143.155 36.8734 143.147 36.8734C143.538 36.6035 143.775 36.3382 143.775 36.3382C143.775 36.3382 143.431 36.543 142.953 36.7059C142.833 36.7478 142.708 36.785 142.587 36.8222C142.471 36.8083 142.355 36.799 142.247 36.7897C142.144 36.7803 142.045 36.7803 141.951 36.7803C141.916 36.7757 141.882 36.771 141.843 36.771C142.114 36.6779 142.346 36.5755 142.527 36.4871C142.635 36.4638 142.695 36.4499 142.695 36.4499H142.605C142.854 36.3289 142.992 36.2358 142.992 36.2358C142.992 36.2358 142.803 36.3335 142.476 36.4545H142.028C142.527 36.1706 142.893 35.9146 142.893 35.9193L141.929 36.2265C141.662 36.3102 141.365 36.394 141.073 36.4685C140.75 36.4685 140.414 36.4778 140.079 36.4825C140.053 36.4731 140.023 36.4685 139.993 36.4592C140.027 36.4499 140.07 36.4452 140.105 36.4406C140.78 36.3195 141.223 36.0217 141.219 36.0263C141.223 36.0263 140.733 36.1985 140.087 36.1846C139.997 36.1846 139.902 36.1846 139.808 36.1753C139.722 36.1613 139.627 36.1473 139.537 36.1241C139.02 36.017 138.435 35.8029 137.876 35.6353C138.198 35.6121 138.478 35.5748 138.693 35.5283C138.986 35.4631 139.149 35.3793 139.149 35.384C139.149 35.384 138.977 35.4352 138.685 35.4491C138.392 35.4678 137.988 35.4491 137.523 35.3979C136.908 35.3374 136.193 35.2397 135.513 35.2025C135.815 35.0163 135.995 34.8441 135.995 34.8487C135.995 34.8487 135.621 35.0302 135.117 35.1373C135.01 35.1652 134.894 35.1838 134.778 35.2025C134.696 35.2025 134.618 35.2071 134.541 35.2164C134.511 35.2164 134.481 35.2257 134.451 35.2304C134.438 35.2304 134.429 35.2304 134.416 35.2257C134.476 35.2164 134.537 35.2025 134.597 35.1885C135.238 35.0582 135.694 34.8441 135.694 34.8487C135.694 34.8487 135.204 34.9325 134.571 34.9325C134.442 34.9325 134.309 34.9325 134.171 34.9232C134.369 34.8859 134.549 34.8394 134.687 34.7975C134.95 34.7137 135.096 34.6299 135.096 34.6346C135.096 34.6346 134.937 34.6811 134.67 34.7184C134.403 34.7556 134.029 34.7696 133.603 34.751C132.906 34.723 132.075 34.6067 131.352 34.5368C130.875 34.4251 130.384 34.346 129.958 34.3507C129.825 34.3507 129.704 34.36 129.588 34.3786C129.42 34.3693 129.257 34.3646 129.098 34.36C129.261 34.3227 129.425 34.2855 129.584 34.2622C130.023 34.1878 130.419 34.1878 130.703 34.225C130.987 34.2622 131.154 34.3181 131.154 34.3134C131.154 34.3134 131 34.2296 130.716 34.1459C130.436 34.0574 130.031 33.9923 129.562 34.0016C129.283 34.0016 128.99 34.0388 128.693 34.0854C128.456 34.0295 128.155 33.9969 127.828 33.9969C127.058 33.9969 126.133 34.2064 125.423 34.5555C125.328 34.5601 125.234 34.5648 125.143 34.5741C125.285 34.5043 125.41 34.4438 125.518 34.4065C125.707 34.3367 125.832 34.3134 125.832 34.3134C125.832 34.3134 125.707 34.3041 125.505 34.3274C125.302 34.3507 125.014 34.4158 124.704 34.5368C124.61 34.5741 124.515 34.6113 124.42 34.6579C124.037 34.7137 123.715 34.7929 123.469 34.8953C123.056 35.0582 122.712 35.2723 122.419 35.505C122.458 35.4259 122.484 35.384 122.484 35.384C122.484 35.384 122.411 35.4678 122.303 35.6074C121.692 36.1427 121.339 36.785 121.137 37.3342C121.103 37.4227 121.073 37.5111 121.051 37.5996C120.974 37.8556 120.931 38.0836 120.905 38.2512C120.41 38.3722 119.889 38.6329 119.485 38.8935C118.973 39.2147 118.637 39.5452 118.637 39.5452C118.637 39.5452 119.037 39.3217 119.584 39.1262C119.829 39.0332 120.1 38.9494 120.371 38.8749C120.238 38.9633 120.092 39.0611 119.945 39.1635C119.756 39.2193 119.536 39.3217 119.3 39.5079C118.775 39.9036 118.237 40.5785 117.867 41.1556C117.493 41.7375 117.26 42.2122 117.256 42.2076C117.256 42.2076 117.514 41.9004 117.888 41.4954C117.733 41.7282 117.652 41.8911 117.652 41.8864C117.652 41.8864 117.695 41.8399 117.768 41.7607C117.514 42.189 117.316 42.7103 117.165 43.1711C117.006 43.5248 116.86 43.9111 116.748 44.2928C116.709 44.3999 116.666 44.5116 116.632 44.6326C116.447 45.1027 116.258 45.6007 116.077 46.1267C114.739 49.9574 117.609 57.6561 117.372 57.7817C117.135 57.9121 114.975 61.6962 114.975 61.6962C114.975 61.6962 110.883 64.0794 109.153 64.5867C107.424 65.0987 105.38 66.6301 103.017 67.1374C100.655 67.6494 100.5 67.9892 99.2436 69.1761C97.9829 70.3677 96.5672 71.7315 94.8374 72.7508C93.1076 73.7702 89.3339 74.4544 86.8166 77.1726ZM183.534 117.137C183.448 117.058 183.362 116.983 183.268 116.909C180.897 115.056 175.337 112.794 180.987 114.014C182.562 114.358 185.393 114.358 188.066 114.358C190.738 114.358 192.313 113.846 193.883 115.205C195.458 116.569 199.705 115.461 200.492 115.461C200.492 115.461 199.546 116.909 197.816 117.504C196.663 117.9 193.552 118.487 190.841 118.91C189.688 117.784 188.616 116.783 188.367 116.709C187.777 116.527 186.77 116.89 185.763 116.978C185.299 117.02 184.46 117.099 183.534 117.141V117.137ZM127.854 34.2529C127.854 34.2529 127.884 34.2529 127.901 34.2436C127.54 34.332 127.196 34.4298 126.886 34.5275C126.851 34.5275 126.817 34.5275 126.783 34.5275C127.14 34.4065 127.51 34.3088 127.854 34.2529ZM146.959 37.9486C146.959 37.9486 147.007 37.9021 147.037 37.8742C147.015 37.93 146.989 37.9812 146.968 38.0371C146.968 38.0371 146.959 38.0371 146.959 38.0417C146.946 38.0231 146.938 37.9998 146.929 37.9812C146.938 37.9673 146.946 37.958 146.959 37.944V37.9486ZM146.159 43.5015C146.159 43.5015 146.12 43.5295 146.103 43.5434C146.129 43.5155 146.159 43.4922 146.185 43.4643C146.176 43.4736 146.168 43.4876 146.159 43.4969V43.5015ZM145.875 37.297C145.853 37.297 145.828 37.297 145.806 37.3063C145.858 37.2924 145.901 37.283 145.944 37.2737C145.922 37.283 145.896 37.2924 145.875 37.297ZM146.266 37.3715C146.288 37.3715 146.314 37.3622 146.335 37.3575C146.357 37.3901 146.383 37.4227 146.404 37.4599C146.335 37.4599 146.262 37.4553 146.189 37.4506C146.198 37.4413 146.206 37.4366 146.211 37.432C146.232 37.4134 146.254 37.3901 146.271 37.3715H146.266ZM145.217 44.4278C145.277 44.4045 145.341 44.3766 145.406 44.344C145.436 44.344 145.462 44.344 145.496 44.3394C145.402 44.3952 145.307 44.4464 145.229 44.4976C145.225 44.4697 145.221 44.4511 145.217 44.4278ZM141.628 36.6686C141.783 36.6407 141.925 36.6128 142.05 36.5849C141.899 36.6314 141.727 36.6686 141.546 36.7059C141.572 36.6919 141.602 36.6826 141.624 36.664L141.628 36.6686ZM146.021 36.9433C146.064 36.9898 146.129 37.0643 146.198 37.162C146.163 37.1806 146.124 37.1993 146.081 37.2132C146.081 37.2132 146.081 37.2132 146.077 37.2132C145.948 37.2318 145.746 37.2551 145.496 37.2737C145.518 37.2644 145.544 37.2505 145.565 37.2412C145.746 37.1434 145.896 37.0363 146.021 36.9479V36.9433ZM146.555 37.2551C146.555 37.2551 146.555 37.2784 146.559 37.2877C146.538 37.2877 146.512 37.2877 146.482 37.283C146.507 37.2737 146.533 37.2644 146.555 37.2551ZM146.46 37.3296C146.503 37.3203 146.538 37.3156 146.568 37.311C146.572 37.3529 146.576 37.4041 146.585 37.4646H146.576C146.533 37.418 146.499 37.3715 146.46 37.3296ZM147.321 37.2505C147.351 37.311 147.385 37.3901 147.42 37.4832C147.385 37.4832 147.347 37.4832 147.291 37.4832C147.299 37.4041 147.308 37.3389 147.316 37.2784C147.316 37.2691 147.321 37.2598 147.325 37.2551L147.321 37.2505ZM147.441 37.5437C147.476 37.6368 147.51 37.7438 147.54 37.8649C147.424 37.8974 147.303 37.9347 147.196 37.9719C147.205 37.9254 147.213 37.8881 147.222 37.8416C147.23 37.7904 147.239 37.7438 147.248 37.6973C147.321 37.6368 147.39 37.5809 147.437 37.5484L147.441 37.5437ZM147.622 38.3303C147.631 38.3955 147.639 38.4653 147.643 38.5351C147.454 38.6561 147.303 38.7446 147.377 38.6794C147.437 38.6189 147.527 38.4839 147.622 38.3303ZM148.044 38.4374C148.057 38.4886 148.074 38.563 148.091 38.6561C148.074 38.8563 148.044 39.1123 148.005 39.4009C147.949 39.8524 147.854 40.369 147.755 40.8391C147.751 40.7647 147.747 40.6855 147.742 40.6064C147.773 40.518 147.798 40.4249 147.82 40.3225C147.893 40.0013 147.936 39.6243 147.927 39.238C147.927 39.1402 147.919 39.0425 147.91 38.9447C147.962 38.7166 148.009 38.5537 148.048 38.442L148.044 38.4374ZM147.041 42.7661C147.174 42.5474 147.295 42.2867 147.394 42.0074C147.454 41.9097 147.51 41.8212 147.549 41.7375C147.536 41.798 147.527 41.8538 147.514 41.9097C147.42 42.1191 147.342 42.2867 147.282 42.417C147.205 42.5334 147.127 42.6498 147.037 42.7615L147.041 42.7661Z" fill="white"/>
<path d="M5.12053 228.423L4.78921 241.642H0L0.925138 217.847H5.87786L11.1619 232.993L16.446 217.847H21.3987L22.3238 241.642H17.5346L17.2033 228.423L13.3736 238.57H8.94587L5.11623 228.423H5.12053Z" fill="#231F20"/>
<path d="M47.5908 241.642H42.4402L41.2526 236.996H33.8859L32.6983 241.642H27.5476L34.2516 217.847H40.8567L47.5951 241.642H47.5908ZM35.0047 232.533H40.0563L37.5477 222.567L35.0047 232.533Z" fill="#231F20"/>
<path d="M60.9947 234.246H58.0902V241.642H53.1375V217.847H62.2856C67.6342 217.847 69.6178 220.133 69.6178 224.601V227.529C69.6178 230.494 68.6281 232.495 66.4164 233.496L71.7349 241.642H65.857L61.0033 234.246H60.9947ZM64.6608 225.104C64.6608 223.317 64.0326 222.604 62.0188 222.604H58.0902V229.605H62.0188C64.1315 229.605 64.6608 228.781 64.6608 226.998V225.104Z" fill="#231F20"/>
<path d="M86.5586 222.6V241.642H81.6059V222.6H75.6936V217.847H92.4709V222.6H86.5586Z" fill="#231F20"/>
<path d="M98.2498 241.642V217.847H103.202V241.642H98.2498Z" fill="#231F20"/>
<path d="M128.96 241.642H123.809L122.622 236.996H115.255L114.067 241.642H108.917L115.621 217.847H122.226L128.964 241.642H128.96ZM116.378 232.533H121.43L118.921 222.567L116.378 232.533Z" fill="#231F20"/>
<path d="M134.511 241.642V217.847H139.463V236.889H148.181V241.642H134.511Z" fill="#231F20"/>
<path d="M192.304 241.642H187.153L185.966 236.996H178.599L177.411 241.642H172.261L178.965 217.847H185.57L192.308 241.642H192.304ZM179.718 232.533H184.769L182.261 222.567L179.718 232.533Z" fill="#231F20"/>
<path d="M205.712 234.246H202.807V241.642H197.855V217.847H207.003C212.351 217.847 214.335 220.133 214.335 224.601V227.529C214.335 230.494 213.345 232.495 211.134 233.496L216.452 241.642H210.574L205.721 234.246H205.712ZM209.378 225.104C209.378 223.317 208.75 222.604 206.736 222.604H202.807V229.605H206.736C208.849 229.605 209.378 228.781 209.378 226.998V225.104Z" fill="#231F20"/>
<path d="M231.272 222.6V241.642H226.319V222.6H220.407V217.847H237.184V222.6H231.272Z" fill="#231F20"/>
<path d="M267.266 233.855C267.266 235.926 267.894 237.141 270.338 237.141C271.922 237.141 274.103 236.927 276.018 236.568L276.711 241.246C274.529 241.744 272.55 241.995 270.338 241.995C264.792 241.995 262.313 239.03 262.313 234.706V224.773C262.313 220.449 264.792 217.484 270.338 217.484C272.55 217.484 274.534 217.736 276.711 218.234L276.018 222.912C274.103 222.553 271.922 222.339 270.338 222.339C267.894 222.339 267.266 223.554 267.266 225.625V233.841V233.855Z" fill="#D42027"/>
<path d="M283.084 241.642V217.847H288.036V236.889H296.754V241.642H283.084Z" fill="#D42027"/>
<path d="M319.048 217.847V234.711C319.048 238.318 316.97 242 310.76 242C304.551 242 302.473 238.318 302.473 234.711V217.847H307.426V234.208C307.426 236.135 308.286 237.243 310.76 237.243C313.235 237.243 314.095 236.135 314.095 234.208V217.847H319.048Z" fill="#D42027"/>
<path d="M335.627 241.642H326.247V217.847H334.93C339.521 217.847 341.204 219.849 341.204 223.065V225.495C341.204 227.208 340.511 228.423 338.76 229.247C340.576 229.712 341.996 231.425 341.996 233.64V235.963C341.996 239.319 340.012 241.642 335.623 241.642H335.627ZM336.256 223.852C336.256 222.814 335.662 222.172 334.272 222.172H331.2V227.603H334.272C335.593 227.603 336.256 226.891 336.256 225.923V223.852ZM337.047 233.785C337.047 232.463 336.29 231.783 334.969 231.783H331.204V237.322H334.276C335.83 237.322 337.052 236.964 337.052 235.251V233.785H337.047Z" fill="#D42027"/>
</g>
<defs>
<clipPath id="clip0_70_25">
<rect width="342" height="242" fill="white"/>
</clipPath>
</defs>
</svg>
